<svg width="300" height="300" viewBox="0 0 300 300" fill="none" xmlns="http://www.w3.org/2000/svg">
<g clip-path="url(#clip0_112_2722)">
<rect width="300" height="300" fill="#E3EEEA"/>
<path d="M-1.04617 -91L77.4538 -45.25V46.25L-1.04618 0.500002L-1.04617 -91Z" fill="#8CC1BC"/>
<path d="M-79 -45.25L-0.500001 -91L78 -45.25L-0.500008 0.500002L-79 -45.25Z" fill="#A9D2CE"/>
<path d="M-0.500008 0.500002L78 46.25L-0.500008 92L-79 46.25L-0.500008 0.500002Z" fill="#CFE2E0"/>
<path d="M-79 -45.25L-0.500008 0.500002V92L-79 46.25L-79 -45.25Z" fill="#CFE2E0"/>
<path d="M298.954 -91L377.454 -45.25V46.25L298.954 0.500002L298.954 -91Z" fill="#8CC1BC"/>
<path d="M221 -45.25L299.5 -91L378 -45.25L299.5 0.500002L221 -45.25Z" fill="#A9D2CE"/>
<path d="M299.5 0.500002L378 46.25L299.5 92L221 46.25L299.5 0.500002Z" fill="#CFE2E0"/>
<path d="M221 -45.25L299.5 0.500002V92L221 46.25L221 -45.25Z" fill="#CFE2E0"/>
<path d="M298.954 209L377.454 254.75V346.25L298.954 300.5L298.954 209Z" fill="#8CC1BC"/>
<path d="M221 254.75L299.5 209L378 254.75L299.5 300.5L221 254.75Z" fill="#A9D2CE"/>
<path d="M299.5 300.5L378 346.25L299.5 392L221 346.25L299.5 300.5Z" fill="#CFE2E0"/>
<path d="M221 254.75L299.5 300.5V392L221 346.25L221 254.75Z" fill="#CFE2E0"/>
<path d="M-1.04617 209L77.4538 254.75V346.25L-1.04618 300.5L-1.04617 209Z" fill="#8CC1BC"/>
<path d="M-79 254.75L-0.500001 209L78 254.75L-0.500008 300.5L-79 254.75Z" fill="#A9D2CE"/>
<path d="M-0.500008 300.5L78 346.25L-0.500008 392L-79 346.25L-0.500008 300.5Z" fill="#CFE2E0"/>
<path d="M-79 254.75L-0.500008 300.5V392L-79 346.25L-79 254.75Z" fill="#CFE2E0"/>
</g>
<defs>
<clipPath id="clip0_112_2722">
<rect width="300" height="300" fill="white"/>
</clipPath>
</defs>
</svg>
