<svg width="141" height="49" viewBox="0 0 141 49" fill="none" xmlns="http://www.w3.org/2000/svg">
<path d="M20.4849 0L41.1134 12.0624V36.1872L20.4849 24.1248L20.4849 0Z" fill="#E0EBCD"/>
<path d="M9.08649e-07 12.0624L20.6285 0L41.2569 12.0624L20.6285 24.1248L9.08649e-07 12.0624Z" fill="white"/>
<path d="M20.6285 24.1248L41.2569 36.1872L20.6285 48.2496L0 36.1872L20.6285 24.1248Z" fill="#01565B"/>
<path d="M9.08649e-07 12.0624L20.6285 24.1248V48.2496L0 36.1872L9.08649e-07 12.0624Z" fill="#CEEFD4"/>
<path d="M58.0426 15.0625H62.3805V17.156H55.4022V3.99149H58.0426V15.0625Z" fill="#CEEFD4"/>
<path d="M65.3978 5.4626C64.9326 5.4626 64.5428 5.318 64.2285 5.02881C63.9267 4.72705 63.7758 4.35613 63.7758 3.91605C63.7758 3.47598 63.9267 3.11135 64.2285 2.82215C64.5428 2.52039 64.9326 2.36951 65.3978 2.36951C65.8631 2.36951 66.2465 2.52039 66.5483 2.82215C66.8627 3.11135 67.0198 3.47598 67.0198 3.91605C67.0198 4.35613 66.8627 4.72705 66.5483 5.02881C66.2465 5.318 65.8631 5.4626 65.3978 5.4626ZM66.6992 6.70738V17.156H64.0588V6.70738H66.6992Z" fill="#CEEFD4"/>
<path d="M73.6647 14.723L76.3051 6.70738H79.1153L75.249 17.156H72.0427L68.1952 6.70738H71.0242L73.6647 14.723Z" fill="#CEEFD4"/>
<path d="M90.3114 11.7054C90.3114 12.0826 90.2863 12.4221 90.236 12.7238H82.5976C82.6604 13.4782 82.9245 14.0692 83.3897 14.4967C83.8549 14.9242 84.427 15.1379 85.106 15.1379C86.0867 15.1379 86.7845 14.7167 87.1995 13.8743H90.0474C89.7456 14.8802 89.1672 15.71 88.3122 16.3639C87.4572 17.0051 86.4073 17.3257 85.1626 17.3257C84.1567 17.3257 83.2514 17.1057 82.4467 16.6656C81.6545 16.213 81.0322 15.578 80.5795 14.7607C80.1394 13.9435 79.9194 13.0004 79.9194 11.9317C79.9194 10.8504 80.1394 9.90106 80.5795 9.08378C81.0196 8.2665 81.6357 7.63782 82.4278 7.19775C83.2199 6.75767 84.1315 6.53764 85.1626 6.53764C86.1559 6.53764 87.0423 6.75139 87.8219 7.17889C88.614 7.60639 89.2238 8.2162 89.6513 9.00834C90.0914 9.7879 90.3114 10.6869 90.3114 11.7054ZM87.5767 10.9509C87.5641 10.272 87.3189 9.73132 86.8411 9.32896C86.3633 8.91404 85.7787 8.70657 85.0871 8.70657C84.4333 8.70657 83.8801 8.90775 83.4274 9.3101C82.9873 9.69988 82.717 10.2468 82.6164 10.9509H87.5767Z" fill="#CEEFD4"/>
<path d="M104.201 10.404C104.943 10.5423 105.553 10.9132 106.031 11.5168C106.509 12.1203 106.748 12.8118 106.748 13.5914C106.748 14.2955 106.572 14.9179 106.22 15.4586C105.88 15.9867 105.383 16.4016 104.73 16.7033C104.076 17.0051 103.302 17.156 102.41 17.156H96.7328V3.99149H102.165C103.057 3.99149 103.824 4.13609 104.466 4.42528C105.119 4.71447 105.61 5.11683 105.937 5.63234C106.276 6.14786 106.446 6.73253 106.446 7.38635C106.446 8.15334 106.238 8.79459 105.823 9.3101C105.421 9.82562 104.88 10.1903 104.201 10.404ZM99.3732 9.42326H101.787C102.416 9.42326 102.9 9.28496 103.24 9.00834C103.579 8.71915 103.749 8.31051 103.749 7.78242C103.749 7.25433 103.579 6.84569 103.24 6.5565C102.9 6.2673 102.416 6.12271 101.787 6.12271H99.3732V9.42326ZM102.033 15.0059C102.674 15.0059 103.17 14.855 103.522 14.5533C103.887 14.2515 104.069 13.824 104.069 13.2708C104.069 12.705 103.881 12.2649 103.504 11.9505C103.126 11.6236 102.617 11.4602 101.976 11.4602H99.3732V15.0059H102.033Z" fill="#CEEFD4"/>
<path d="M110.191 5.4626C109.726 5.4626 109.336 5.318 109.022 5.02881C108.72 4.72705 108.569 4.35613 108.569 3.91605C108.569 3.47598 108.72 3.11135 109.022 2.82215C109.336 2.52039 109.726 2.36951 110.191 2.36951C110.656 2.36951 111.04 2.52039 111.342 2.82215C111.656 3.11135 111.813 3.47598 111.813 3.91605C111.813 4.35613 111.656 4.72705 111.342 5.02881C111.04 5.318 110.656 5.4626 110.191 5.4626ZM111.492 6.70738V17.156H108.852V6.70738H111.492Z" fill="#CEEFD4"/>
<path d="M116.742 8.32937C117.081 7.77613 117.521 7.34234 118.062 7.02801C118.615 6.71367 119.244 6.5565 119.948 6.5565V9.32896H119.25C118.42 9.32896 117.792 9.52385 117.364 9.91363C116.949 10.3034 116.742 10.9824 116.742 11.9505V17.156H114.101V6.70738H116.742V8.32937Z" fill="#CEEFD4"/>
<path d="M124.801 8.87632V13.9309C124.801 14.2829 124.882 14.5407 125.046 14.7042C125.222 14.855 125.511 14.9305 125.913 14.9305H127.139V17.156H125.48C123.254 17.156 122.141 16.0747 122.141 13.912V8.87632H120.897V6.70738H122.141V4.12352H124.801V6.70738H127.139V8.87632H124.801Z" fill="#CEEFD4"/>
<path d="M134.923 6.5565C135.715 6.5565 136.419 6.73253 137.035 7.08459C137.651 7.42407 138.129 7.9333 138.469 8.61227C138.821 9.27867 138.997 10.0834 138.997 11.0264V17.156H136.356V11.3847C136.356 10.5549 136.149 9.91992 135.734 9.47985C135.319 9.0272 134.753 8.80087 134.036 8.80087C133.307 8.80087 132.729 9.0272 132.301 9.47985C131.886 9.91992 131.679 10.5549 131.679 11.3847V17.156H129.038V3.19936H131.679V8.00874C132.018 7.55609 132.471 7.20403 133.037 6.95256C133.603 6.68852 134.231 6.5565 134.923 6.5565Z" fill="#CEEFD4"/>
<path d="M62.1919 40.7314L59.2874 35.6014H58.0426V40.7314H55.4022V27.5669H60.3436C61.362 27.5669 62.2296 27.7492 62.9463 28.1138C63.663 28.4659 64.1974 28.95 64.5494 29.5661C64.914 30.1696 65.0964 30.8486 65.0964 31.603C65.0964 32.4706 64.8449 33.2564 64.342 33.9605C63.839 34.6521 63.0909 35.1299 62.0976 35.3939L65.2472 40.7314H62.1919ZM58.0426 33.621H60.2493C60.966 33.621 61.5003 33.4513 61.8524 33.1118C62.2044 32.7598 62.3805 32.2757 62.3805 31.6596C62.3805 31.056 62.2044 30.5908 61.8524 30.2639C61.5003 29.9244 60.966 29.7547 60.2493 29.7547H58.0426V33.621Z" fill="#CEEFD4"/>
<path d="M77.1976 35.2808C77.1976 35.658 77.1725 35.9974 77.1222 36.2992H69.4837C69.5466 37.0536 69.8107 37.6446 70.2759 38.0721C70.7411 38.4996 71.3132 38.7133 71.9922 38.7133C72.9729 38.7133 73.6707 38.2921 74.0857 37.4497H76.9336C76.6318 38.4556 76.0534 39.2854 75.1984 39.9393C74.3434 40.5805 73.2935 40.9011 72.0487 40.9011C71.0429 40.9011 70.1376 40.6811 69.3329 40.241C68.5407 39.7884 67.9183 39.1534 67.4657 38.3361C67.0256 37.5188 66.8056 36.5758 66.8056 35.5071C66.8056 34.4258 67.0256 33.4764 67.4657 32.6592C67.9058 31.8419 68.5219 31.2132 69.314 30.7731C70.1061 30.3331 71.0177 30.113 72.0487 30.113C73.0421 30.113 73.9285 30.3268 74.7081 30.7543C75.5002 31.1818 76.11 31.7916 76.5375 32.5837C76.9776 33.3633 77.1976 34.2623 77.1976 35.2808ZM74.4629 34.5263C74.4503 33.8474 74.2051 33.3067 73.7273 32.9044C73.2495 32.4894 72.6649 32.282 71.9733 32.282C71.3195 32.282 70.7662 32.4831 70.3136 32.8855C69.8735 33.2753 69.6032 33.8222 69.5026 34.5263H74.4629Z" fill="#CEEFD4"/>
<path d="M83.2176 30.113C83.9971 30.113 84.6824 30.2702 85.2734 30.5845C85.8643 30.8863 86.3295 31.2824 86.669 31.7727V30.2828H89.3283V40.8068C89.3283 41.775 89.1334 42.6363 88.7437 43.3907C88.3539 44.1577 87.7692 44.7612 86.9897 45.2013C86.2101 45.6539 85.2671 45.8803 84.1606 45.8803C82.6769 45.8803 81.4573 45.5345 80.5017 44.8429C79.5587 44.1514 79.0243 43.2084 78.8986 42.0139H81.5202C81.6585 42.4917 81.9539 42.8689 82.4066 43.1455C82.8718 43.4347 83.4313 43.5793 84.0852 43.5793C84.8521 43.5793 85.4745 43.3467 85.9523 42.8815C86.4301 42.4288 86.669 41.7373 86.669 40.8068V39.1848C86.3295 39.6752 85.858 40.0838 85.2545 40.4108C84.6635 40.7377 83.9846 40.9011 83.2176 40.9011C82.3374 40.9011 81.5327 40.6748 80.8035 40.2222C80.0742 39.7695 79.4958 39.1345 79.0683 38.3173C78.6534 37.4874 78.4459 36.5381 78.4459 35.4694C78.4459 34.4132 78.6534 33.4764 79.0683 32.6592C79.4958 31.8419 80.0679 31.2132 80.7846 30.7731C81.5139 30.3331 82.3249 30.113 83.2176 30.113ZM86.669 35.5071C86.669 34.8658 86.5433 34.3189 86.2918 33.8662C86.0403 33.401 85.7009 33.049 85.2734 32.8101C84.8459 32.5586 84.3869 32.4328 83.8966 32.4328C83.4062 32.4328 82.9535 32.5523 82.5386 32.7912C82.1237 33.0301 81.7842 33.3821 81.5202 33.8474C81.2687 34.3 81.143 34.8407 81.143 35.4694C81.143 36.098 81.2687 36.6513 81.5202 37.1291C81.7842 37.5943 82.1237 37.9526 82.5386 38.2041C82.9661 38.4556 83.4188 38.5813 83.8966 38.5813C84.3869 38.5813 84.8459 38.4619 85.2734 38.223C85.7009 37.9715 86.0403 37.6194 86.2918 37.1668C86.5433 36.7016 86.669 36.1483 86.669 35.5071Z" fill="#CEEFD4"/>
<path d="M93.2463 29.038C92.781 29.038 92.3913 28.8934 92.0769 28.6042C91.7752 28.3024 91.6243 27.9315 91.6243 27.4914C91.6243 27.0514 91.7752 26.6867 92.0769 26.3975C92.3913 26.0958 92.781 25.9449 93.2463 25.9449C93.7115 25.9449 94.095 26.0958 94.3967 26.3975C94.7111 26.6867 94.8683 27.0514 94.8683 27.4914C94.8683 27.9315 94.7111 28.3024 94.3967 28.6042C94.095 28.8934 93.7115 29.038 93.2463 29.038ZM94.5476 30.2828V40.7314H91.9072V30.2828H94.5476Z" fill="#CEEFD4"/>
<path d="M101.155 40.9011C100.3 40.9011 99.5328 40.7502 98.8538 40.4485C98.1749 40.1341 97.6342 39.7129 97.2318 39.1848C96.8421 38.6567 96.6283 38.0721 96.5906 37.4308H99.2499C99.3002 37.8332 99.4951 38.1664 99.8346 38.4304C100.187 38.6945 100.62 38.8265 101.136 38.8265C101.639 38.8265 102.029 38.7259 102.305 38.5247C102.594 38.3236 102.739 38.0658 102.739 37.7515C102.739 37.412 102.563 37.1605 102.211 36.997C101.871 36.821 101.325 36.6324 100.57 36.4312C99.7906 36.2426 99.1493 36.0477 98.6464 35.8466C98.156 35.6454 97.7285 35.3373 97.3639 34.9224C97.0118 34.5075 96.8358 33.948 96.8358 33.2438C96.8358 32.6655 96.9992 32.1374 97.3261 31.6596C97.6656 31.1818 98.1434 30.8046 98.7595 30.528C99.3882 30.2513 100.124 30.113 100.966 30.113C102.211 30.113 103.204 30.4274 103.946 31.056C104.688 31.6721 105.097 32.5083 105.172 33.5645H102.645C102.607 33.1495 102.431 32.8226 102.117 32.5837C101.815 32.3323 101.406 32.2065 100.891 32.2065C100.413 32.2065 100.042 32.2945 99.778 32.4706C99.5265 32.6466 99.4008 32.8918 99.4008 33.2061C99.4008 33.5582 99.5768 33.8285 99.9289 34.0171C100.281 34.1931 100.828 34.3755 101.57 34.5641C102.324 34.7527 102.947 34.9476 103.437 35.1487C103.927 35.3499 104.348 35.6642 104.701 36.0917C105.065 36.5067 105.254 37.0599 105.266 37.7515C105.266 38.355 105.097 38.8956 104.757 39.3734C104.43 39.8512 103.952 40.2284 103.324 40.5051C102.708 40.7691 101.985 40.9011 101.155 40.9011Z" fill="#CEEFD4"/>
<path d="M110.508 32.4517V37.5063C110.508 37.8583 110.59 38.1161 110.753 38.2795C110.929 38.4304 111.218 38.5059 111.621 38.5059H112.847V40.7314H111.187C108.961 40.7314 107.849 39.6501 107.849 37.4874V32.4517H106.604V30.2828H107.849V27.6989H110.508V30.2828H112.847V32.4517H110.508Z" fill="#CEEFD4"/>
<path d="M117.386 31.9048C117.726 31.3515 118.166 30.9177 118.707 30.6034C119.26 30.2891 119.888 30.1319 120.593 30.1319V32.9044H119.895C119.065 32.9044 118.436 33.0992 118.009 33.489C117.594 33.8788 117.386 34.5578 117.386 35.5259V40.7314H114.746V30.2828H117.386V31.9048Z" fill="#CEEFD4"/>
<path d="M121.692 35.4694C121.692 34.4132 121.9 33.4764 122.314 32.6592C122.742 31.8419 123.314 31.2132 124.031 30.7731C124.76 30.3331 125.571 30.113 126.464 30.113C127.243 30.113 127.922 30.2702 128.501 30.5845C129.092 30.8989 129.563 31.2949 129.915 31.7727V30.2828H132.574V40.7314H129.915V39.2037C129.576 39.6941 129.104 40.1027 128.501 40.4296C127.91 40.744 127.224 40.9011 126.445 40.9011C125.565 40.9011 124.76 40.6748 124.031 40.2222C123.314 39.7695 122.742 39.1345 122.314 38.3173C121.9 37.4874 121.692 36.5381 121.692 35.4694ZM129.915 35.5071C129.915 34.8658 129.789 34.3189 129.538 33.8662C129.286 33.401 128.947 33.049 128.519 32.8101C128.092 32.5586 127.633 32.4328 127.143 32.4328C126.652 32.4328 126.2 32.5523 125.785 32.7912C125.37 33.0301 125.03 33.3821 124.766 33.8474C124.515 34.3 124.389 34.8407 124.389 35.4694C124.389 36.098 124.515 36.6513 124.766 37.1291C125.03 37.5943 125.37 37.9526 125.785 38.2041C126.212 38.4556 126.665 38.5813 127.143 38.5813C127.633 38.5813 128.092 38.4619 128.519 38.223C128.947 37.9715 129.286 37.6194 129.538 37.1668C129.789 36.7016 129.915 36.1483 129.915 35.5071Z" fill="#CEEFD4"/>
<path d="M137.794 31.9048C138.133 31.3515 138.573 30.9177 139.114 30.6034C139.667 30.2891 140.296 30.1319 141 30.1319V32.9044H140.302C139.472 32.9044 138.844 33.0992 138.416 33.489C138.001 33.8788 137.794 34.5578 137.794 35.5259V40.7314H135.153V30.2828H137.794V31.9048Z" fill="#CEEFD4"/>
</svg>
